<?xml version="1.0" encoding="iso-8859-1"?>
<!-- Generator: Adobe Illustrator 19.0.0, SVG Export Plug-In . SVG Version: 6.00 Build 0)  -->
<svg xmlns="http://www.w3.org/2000/svg" xmlns:xlink="http://www.w3.org/1999/xlink" version="1.1" id="Capa_1" x="0px" y="0px" viewBox="0 0 512 512" style="enable-background:new 0 0 512 512;" xml:space="preserve" width="512px" height="512px">
<g>
	<g>
		<g>
			<path d="M244.792,222.313c-2.938-19.875-41.146-51.198-70.313-51.948c-18.438-0.979-30.938,10.531-34.875,30.177     c-3.521,17.604,3.292,41.198,16.563,57.385c10.083,12.313,22.854,19.094,35.979,19.094c17.438,0,32.479-6.292,42.333-17.719     c8.688-10.063,12.333-23.188,10.313-36.979V222.313z M218.333,245.354c-5.667,6.573-15.208,10.333-26.188,10.333     c-8.917,0-16.042-7.073-19.5-11.281c-9.188-11.219-14.396-28.281-12.125-39.677c2.25-11.25,7.417-13.042,12.75-13.042     c0.208,0,0.417,0,0.604,0c20.479,0.479,48.625,25.99,49.792,33.74v0.01C224.813,233.104,222.958,240,218.333,245.354z" fill="#FFFFFF"/>
			<path d="M372.396,200.542c-3.938-19.646-17-31.052-34.875-30.177c-29.167,0.75-67.375,32.073-70.313,51.948v0.01     c-2.021,13.792,1.625,26.917,10.313,36.979c9.854,11.427,24.896,17.719,42.333,17.719c13.125,0,25.896-6.781,35.979-19.094     C369.104,241.74,375.917,218.146,372.396,200.542z M339.354,244.406c-3.458,4.208-10.583,11.281-19.5,11.281     c-10.979,0-20.521-3.76-26.188-10.333c-4.625-5.354-6.479-12.25-5.333-19.917v-0.01c1.167-7.75,29.313-33.26,49.792-33.74     c4.875-0.073,11,1.354,13.354,13.042C353.75,216.125,348.542,233.188,339.354,244.406z" fill="#FFFFFF"/>
			<path d="M282.604,299.75c-3.292-1.875-7.375-1.854-10.625,0.052c-3.292,1.906-5.313,5.417-5.313,9.219v19.198     c0,12.938,9.563,23.469,21.333,23.469s21.333-10.531,21.333-23.469C309.333,324.938,309.333,314.938,282.604,299.75z" fill="#FFFFFF"/>
			<path d="M240.021,299.802c-3.25-1.906-7.333-1.927-10.625-0.052c-26.729,15.188-26.729,25.188-26.729,28.469     c0,12.938,9.563,23.469,21.333,23.469s21.333-10.531,21.333-23.469v-19.198C245.333,305.219,243.313,301.708,240.021,299.802z" fill="#FFFFFF"/>
			<path d="M464,362.354c-15,0-28.771,7.042-37.688,18.469l-38.626-38.344c24.673-29.995,38.98-67.853,38.98-108.125     c0-28.85-7.496-56.875-21.06-81.721l29.997-29.997c7.188,3.531,15.021,5.365,23.063,5.365C488.083,128,512,104.073,512,74.667     c0-31.938-27.958-58.063-61.063-52.698C442.229,8.385,427.25,0,410.667,0c-26.458,0-48,21.531-48,48     c0,15.281,7.208,29.198,18.938,38.063l-16.973,16.936C328.771,73.241,283.708,59.57,236.583,64.76     c-33.121,3.663-63.781,17.339-88.704,37.858l-25.233-25.233C126.167,70.198,128,62.365,128,54.323     C128,24.917,104.083,0.99,74.667,0.99c-29.417,0-53.333,23.927-53.333,53.333c0,2.552,0.208,5.115,0.646,7.719     C8.375,70.76,0,85.74,0,102.323c0,26.469,21.542,48,48,48c15.292,0,29.208-7.219,38.063-18.948l20.629,20.654     c-9.729,17.404-16.555,36.539-19.504,56.794c-7.255,49.866,7.184,97.771,37.535,134.193l-46.66,46.651     C70.708,385.938,62.625,384,54.313,384c-29.417,0-53.333,23.927-53.333,53.333c0,31.948,28.313,58.125,61.063,52.698     C70.75,503.615,85.729,512,102.313,512c26.458,0,48-21.531,48-48c0-14.979-7.021-28.75-18.458-37.656l38.813-38.948v7.271     c0,17.646,14.354,32,32,32h106.667c17.646,0,32-14.354,32-32v-8.396l48.333,48.333c-3.729,7.365-5.667,15.427-5.667,23.75     C384,487.938,407.917,512,437.333,512c29.417,0,53.333-24.063,53.333-53.646c0-2.552-0.208-5.115-0.646-7.729     C503.625,441.917,512,426.938,512,410.354C512,383.885,490.458,362.354,464,362.354z M406.917,90.958     c2.625-2.635,3.708-6.448,2.833-10.063c-0.875-3.615-3.583-6.521-7.125-7.646C391.479,69.688,384,59.542,384,48     c0-14.708,11.958-26.667,26.667-26.667c10.979,0,20.688,6.635,24.75,16.917c2.063,5.26,7.854,7.948,13.25,6.208     c3.667-1.208,6.938-1.792,10-1.792c17.646,0,32,14.354,32,32c0,17.646-14.354,32-32,32c-6.583,0-12.979-2.104-18.521-6.094     c-4.208-3.021-10.042-2.583-13.771,1.115l-32.339,32.348c-4.193-5.777-8.865-11.219-13.789-16.464L406.917,90.958z      M90.938,106.073c-2.625-2.635-6.438-3.729-10.063-2.823c-3.625,0.875-6.521,3.583-7.646,7.125     C69.688,121.51,59.542,128.99,48,128.99c-14.708,0-26.667-11.958-26.667-26.667c0-10.979,6.646-20.698,16.917-24.76     c5.271-2.073,7.979-7.906,6.208-13.271c-1.208-3.635-1.792-6.896-1.792-9.969c0-17.646,14.354-32,32-32c17.646,0,32,14.354,32,32     c0,6.594-2.104,12.979-6.083,18.49c-3.063,4.25-2.604,10.094,1.104,13.792l30.663,30.655c-4.936,5.191-9.607,10.624-13.87,16.388     L90.938,106.073z M106.771,421.292c-2.583,2.604-3.667,6.365-2.833,9.948c0.833,3.583,3.458,6.49,6.938,7.677     c10.833,3.698,18.104,13.781,18.104,25.083c0,14.708-11.958,26.667-26.667,26.667c-10.979,0-20.688-6.635-24.75-16.917     c-2.083-5.26-7.896-7.99-13.271-6.208c-3.646,1.208-6.896,1.792-9.979,1.792c-17.646,0-32-14.354-32-32c0-17.646,14.354-32,32-32     c6.813,0,13.354,2.208,18.958,6.375c4.25,3.198,10.188,2.771,13.917-1l52.24-52.23c5.167,4.81,10.6,9.345,16.423,13.549     L106.771,421.292z M325.688,366.385c-3.5,1.844-5.688,5.479-5.688,9.427v18.854c0,5.885-4.792,10.667-10.667,10.667v-10.667     c0-5.896-4.771-10.667-10.667-10.667c-5.896,0-10.667,4.771-10.667,10.667v10.667h-21.333v-10.667     c0-5.896-4.771-10.667-10.667-10.667s-10.667,4.771-10.667,10.667v10.667H224v-10.667c0-5.896-4.771-10.667-10.667-10.667     c-5.896,0-10.667,4.771-10.667,10.667v10.667c-5.875,0-10.667-4.781-10.667-10.667v-18.854c0-3.948-2.188-7.583-5.688-9.427     c-56.688-30-87.292-90.635-78-154.5c9.542-65.646,64.479-118.604,130.604-125.917c5.813-0.646,11.563-0.958,17.271-0.958     c36.854,0,71.646,13.208,99.396,38.063c31.625,28.313,49.75,68.875,49.75,111.281     C405.333,289.802,374.813,340.396,325.688,366.385z M473.75,435.094c-5.271,2.083-7.979,7.906-6.208,13.281     c1.208,3.646,1.792,6.906,1.792,9.979c0,17.813-14.354,32.313-32,32.313c-17.646,0-32-14.5-32-32.313     c0-6.813,2.208-13.365,6.375-18.948c3.167-4.25,2.75-10.177-1-13.927l-53.799-53.799c5.729-4.203,11.112-8.751,16.219-13.576     l48.164,47.802c2.604,2.583,6.375,3.646,9.958,2.813c3.563-0.833,6.458-3.458,7.646-6.938     c3.708-10.823,13.792-18.094,25.104-18.094c14.708,0,26.667,11.958,26.667,26.667     C490.667,421.333,484.021,431.042,473.75,435.094z" fill="#FFFFFF"/>
		</g>
	</g>
</g>
<g>
</g>
<g>
</g>
<g>
</g>
<g>
</g>
<g>
</g>
<g>
</g>
<g>
</g>
<g>
</g>
<g>
</g>
<g>
</g>
<g>
</g>
<g>
</g>
<g>
</g>
<g>
</g>
<g>
</g>
</svg>
