<?xml version="1.0" encoding="iso-8859-1"?>
<!-- Generator: Adobe Illustrator 19.0.0, SVG Export Plug-In . SVG Version: 6.00 Build 0)  -->
<svg xmlns="http://www.w3.org/2000/svg" xmlns:xlink="http://www.w3.org/1999/xlink" version="1.1" id="Capa_1" x="0px" y="0px" viewBox="0 0 512 512" style="enable-background:new 0 0 512 512;" xml:space="preserve" width="512px" height="512px">
<g>
	<g>
		<path d="M402.568,431.1c1.807-4.781,2.766-9.887,2.766-15.1c0-22.116-16.974-40.135-38.536-42.249    c4.042-6.473,6.536-13.91,6.536-21.751c0-25.521-17.146-42.667-42.667-42.667c-5.896,0-10.667,4.771-10.667,10.667    c0,5,0,10.667-21.333,10.667c-7.927,0-15.105,2.635-21.333,6.967V149.333c0-23.531-19.146-42.667-42.667-42.667V85.333h10.667    c5.896,0,10.667-4.771,10.667-10.667V21.333h32c5.896,0,10.667-4.771,10.667-10.667C298.667,4.771,293.896,0,288,0H149.333    c-23.521,0-42.667,19.135-42.667,42.667v32c0,5.896,4.771,10.667,10.667,10.667H128v21.333c-23.521,0-42.667,19.135-42.667,42.667    v320C85.333,492.865,104.479,512,128,512h256c23.521,0,42.667-19.135,42.667-42.667    C426.667,452.488,416.772,438.033,402.568,431.1z M128,42.667c0-11.76,9.562-21.333,21.333-21.333h85.333V64H128V42.667z     M213.333,85.333v21.333h-64V85.333H213.333z M197.935,490.667H128c-11.771,0-21.333-9.573-21.333-21.333v-320    c0-11.76,9.563-21.333,21.333-21.333h106.667c11.771,0,21.333,9.573,21.333,21.333v224c-23.521,0-42.667,19.135-42.667,42.667    c0,5.211,0.952,10.322,2.759,15.103C201.892,438.036,192,452.491,192,469.333C192,477.139,194.26,484.366,197.935,490.667z     M384,490.667H234.667c-11.771,0-21.333-9.573-21.333-21.333c0-11.76,9.563-21.333,21.333-21.333h32    c5.896,0,10.667-4.771,10.667-10.667c0-5.896-4.771-10.667-10.667-10.667h-28.738c-1.926-3.257-3.262-6.822-3.262-10.667    c0-11.76,9.563-21.333,21.333-21.333h19.188c5.896,0,10.667-4.771,10.667-10.667c0-4.728-3.119-8.602-7.374-10.003    c2.594-11.93,9.697-21.997,20.186-21.997c22.375,0,36.042-6.729,40.771-20.031C345.875,334.104,352,339.438,352,352    c0,10.969-10.375,21.333-21.333,21.333c-5.896,0-10.667,4.771-10.667,10.667c0,5.896,4.771,10.667,10.667,10.667    c2.885,0,32,0,32,0C374.437,394.667,384,404.24,384,416c0,3.845-1.344,7.41-3.268,10.667H352c-5.896,0-10.667,4.771-10.667,10.667    c0,5.896,4.771,10.667,10.667,10.667h32c11.771,0,21.333,9.573,21.333,21.333C405.333,481.094,395.771,490.667,384,490.667z" fill="#FFFFFF"/>
	</g>
</g>
<g>
</g>
<g>
</g>
<g>
</g>
<g>
</g>
<g>
</g>
<g>
</g>
<g>
</g>
<g>
</g>
<g>
</g>
<g>
</g>
<g>
</g>
<g>
</g>
<g>
</g>
<g>
</g>
<g>
</g>
</svg>
